<?xml version="1.0" encoding="UTF-8"?>
<!DOCTYPE svg PUBLIC "-//W3C//DTD SVG 1.1//EN" "http://www.w3.org/Graphics/SVG/1.1/DTD/svg11.dtd">
<svg xmlns="http://www.w3.org/2000/svg" version="1.1" width="189px" height="140px" style="shape-rendering:geometricPrecision; text-rendering:geometricPrecision; image-rendering:optimizeQuality; fill-rule:evenodd; clip-rule:evenodd" xmlns:xlink="http://www.w3.org/1999/xlink">
<g><path style="opacity:1" fill="#dde0e2" d="M -0.5,-0.5 C 62.5,-0.5 125.5,-0.5 188.5,-0.5C 188.5,46.1667 188.5,92.8333 188.5,139.5C 125.5,139.5 62.5,139.5 -0.5,139.5C -0.5,92.8333 -0.5,46.1667 -0.5,-0.5 Z"/></g>
<g><path style="opacity:1" fill="#b371c0" d="M 44.5,16.5 C 42.588,18.0345 41.2546,20.0345 40.5,22.5C 41.1667,23.1667 41.8333,23.8333 42.5,24.5C 41.8728,25.4168 41.5394,26.4168 41.5,27.5C 38.5298,23.6803 35.6964,19.6803 33,15.5C 30.4075,9.086 32.5741,6.586 39.5,8C 41.568,10.6418 43.2347,13.4752 44.5,16.5 Z"/></g>
<g><path style="opacity:1" fill="#a65fb5" d="M 44.5,16.5 C 49.3111,22.1087 53.6444,28.1087 57.5,34.5C 56.897,37.1844 55.5636,39.5177 53.5,41.5C 53.8178,42.6473 54.4844,43.4806 55.5,44C 54.944,44.3826 54.6107,44.8826 54.5,45.5C 49.6889,39.8913 45.3556,33.8913 41.5,27.5C 41.5394,26.4168 41.8728,25.4168 42.5,24.5C 41.8333,23.8333 41.1667,23.1667 40.5,22.5C 41.2546,20.0345 42.588,18.0345 44.5,16.5 Z"/></g>
<g><path style="opacity:1" fill="#6f2e89" d="M 112.5,51.5 C 113.043,51.44 113.376,51.1067 113.5,50.5C 107.872,49.5046 102.206,49.1712 96.5,49.5C 98.6074,48.5318 100.941,48.1984 103.5,48.5C 103.343,47.1266 103.51,45.7932 104,44.5C 105.518,43.8366 106.685,42.8366 107.5,41.5C 112.619,42.1031 117.285,41.4364 121.5,39.5C 128.224,28.6035 135.557,18.1035 143.5,8C 145.971,7.2937 148.305,7.62703 150.5,9C 151.554,10.3876 151.72,11.8876 151,13.5C 136,35.1667 121,56.8333 106,78.5C 97.4333,80.2443 95.4333,77.2443 100,69.5C 104.423,63.6454 108.59,57.6454 112.5,51.5 Z"/></g>
<g><path style="opacity:1" fill="#a45bb3" d="M 46.5,48.5 C 38.5,49.1667 30.5,49.8333 22.5,50.5C 26.4972,61.1623 30.4972,71.829 34.5,82.5C 33.6981,83.9516 33.1981,85.6183 33,87.5C 32.3333,86.8333 31.6667,86.1667 31,85.5C 29.8978,86.949 28.7311,88.2823 27.5,89.5C 21.7773,75.7004 16.2773,61.7004 11,47.5C 10.1041,44.975 10.6041,42.8083 12.5,41C 22.1839,40.1679 31.8505,40.3345 41.5,41.5C 43.4216,43.6866 45.0883,46.0199 46.5,48.5 Z"/></g>
<g><path style="opacity:1" fill="#853e9b" d="M 107.5,41.5 C 106.685,42.8366 105.518,43.8366 104,44.5C 103.51,45.7932 103.343,47.1266 103.5,48.5C 100.941,48.1984 98.6074,48.5318 96.5,49.5C 87.5,49.5 78.5,49.5 69.5,49.5C 70.7653,48.5207 72.0986,47.5207 73.5,46.5C 72.675,45.6143 71.675,45.281 70.5,45.5C 70.5,44.5 70.5,43.5 70.5,42.5C 80.1316,41.4847 92.4649,41.1514 107.5,41.5 Z"/></g>
<g><path style="opacity:1" fill="#c3a4cd" d="M 46.5,48.5 C 47.0431,48.56 47.3764,48.8933 47.5,49.5C 39.1932,50.4979 30.8599,50.8312 22.5,50.5C 30.5,49.8333 38.5,49.1667 46.5,48.5 Z"/></g>
<g><path style="opacity:1" fill="#b9a2c6" d="M 69.5,49.5 C 78.5,49.5 87.5,49.5 96.5,49.5C 102.206,49.1712 107.872,49.5046 113.5,50.5C 113.376,51.1067 113.043,51.44 112.5,51.5C 98.5,50.1667 84.5,50.1667 70.5,51.5C 69.6618,51.1583 69.3284,50.4916 69.5,49.5 Z"/></g>
<g><path style="opacity:1" fill="#9e84b4" d="M 135.5,48.5 C 143.833,49.1667 152.167,49.8333 160.5,50.5C 151.808,50.8314 143.141,50.498 134.5,49.5C 134.624,48.8933 134.957,48.56 135.5,48.5 Z"/></g>
<g><path style="opacity:1" fill="#8a469f" d="M 57.5,34.5 C 58.7794,36.1233 60.1128,37.79 61.5,39.5C 81.5648,40.8198 101.565,40.8198 121.5,39.5C 117.285,41.4364 112.619,42.1031 107.5,41.5C 92.4649,41.1514 80.1316,41.4847 70.5,42.5C 70.5,43.5 70.5,44.5 70.5,45.5C 71.675,45.281 72.675,45.6143 73.5,46.5C 72.0986,47.5207 70.7653,48.5207 69.5,49.5C 69.3284,50.4916 69.6618,51.1583 70.5,51.5C 75.5038,58.6802 80.3371,66.0135 85,73.5C 85.4859,78.9919 82.9859,80.8253 77.5,79C 69.6126,67.9528 61.9459,56.7861 54.5,45.5C 54.6107,44.8826 54.944,44.3826 55.5,44C 54.4844,43.4806 53.8178,42.6473 53.5,41.5C 55.5636,39.5177 56.897,37.1844 57.5,34.5 Z"/></g>
<g><path style="opacity:1" fill="#531f77" d="M 138.5,129.5 C 131.5,129.5 124.5,129.5 117.5,129.5C 118.398,128.842 119.398,128.176 120.5,127.5C 119.835,125.899 119.501,124.399 119.5,123C 121.058,122.79 122.391,122.29 123.5,121.5C 123.5,121.167 123.5,120.833 123.5,120.5C 123.5,120.167 123.5,119.833 123.5,119.5C 126.382,118.621 128.715,116.954 130.5,114.5C 131.794,115.29 132.961,116.29 134,117.5C 136.653,112.377 138.82,107.044 140.5,101.5C 141.043,101.44 141.376,101.107 141.5,100.5C 133.528,99.5023 125.528,99.169 117.5,99.5C 117.611,98.8826 117.944,98.3826 118.5,98C 114.788,95.3137 112.288,96.147 111,100.5C 110.5,100 110,99.5 109.5,99C 110.833,97.6667 110.833,96.3333 109.5,95C 117.876,94.7874 126.21,94.1207 134.5,93C 135.598,92.2303 135.598,91.397 134.5,90.5C 138.226,90.8226 141.893,90.4892 145.5,89.5C 150.704,76.5497 155.704,63.5497 160.5,50.5C 152.167,49.8333 143.833,49.1667 135.5,48.5C 137.403,46.3721 139.069,44.0387 140.5,41.5C 150.483,40.3344 160.483,40.1678 170.5,41C 171.894,41.956 172.561,43.2894 172.5,45C 161.807,72.7421 151.307,100.575 141,128.5C 140.329,129.252 139.496,129.586 138.5,129.5 Z"/></g>
<g><path style="opacity:1" fill="#7a3993" d="M 70.5,90.5 C 78.5,90.5 86.5,90.5 94.5,90.5C 96.0354,92.0519 97.8687,93.3852 100,94.5C 100.333,94.1667 100.667,93.8333 101,93.5C 102.009,95.0249 102.509,96.6916 102.5,98.5C 100.901,98.2322 99.5676,98.5655 98.5,99.5C 92.1579,99.3338 85.8246,99.5005 79.5,100C 72.8333,106.667 66.1667,113.333 59.5,120C 80.8307,120.5 102.164,120.667 123.5,120.5C 123.5,120.833 123.5,121.167 123.5,121.5C 109.163,121.333 94.8295,121.5 80.5,122C 82.1667,122.333 83.8333,122.667 85.5,123C 82.8554,124.287 81.8554,126.453 82.5,129.5C 94.1667,129.5 105.833,129.5 117.5,129.5C 124.5,129.5 131.5,129.5 138.5,129.5C 107.003,130.664 75.336,130.831 43.5,130C 41.84,128.512 40.84,126.679 40.5,124.5C 40.3691,123.624 40.7025,122.957 41.5,122.5C 42.3957,123.506 43.0623,123.506 43.5,122.5C 42.8333,120.833 42.1667,119.167 41.5,117.5C 43.0287,116.237 44.6954,115.237 46.5,114.5C 47.1577,115.398 47.8243,116.398 48.5,117.5C 54.1877,112.479 59.521,107.146 64.5,101.5C 65.2891,101.217 65.9558,100.717 66.5,100C 60.5092,99.5005 54.5092,99.3338 48.5,99.5C 49.842,98.207 51.5087,97.3736 53.5,97C 52.0072,95.8438 52.1739,95.0104 54,94.5C 59.1398,92.7613 64.6398,91.428 70.5,90.5 Z"/></g>
<g><path style="opacity:1" fill="#8a409e" d="M 34.5,82.5 C 35.6876,84.7221 36.6876,87.0554 37.5,89.5C 48.4798,90.4988 59.4798,90.8321 70.5,90.5C 64.6398,91.428 59.1398,92.7613 54,94.5C 52.1739,95.0104 52.0072,95.8438 53.5,97C 51.5087,97.3736 49.842,98.207 48.5,99.5C 46.076,99.1924 43.7427,99.5258 41.5,100.5C 41.6236,101.107 41.9569,101.44 42.5,101.5C 43.8375,105.845 45.1708,110.178 46.5,114.5C 44.6954,115.237 43.0287,116.237 41.5,117.5C 42.1667,119.167 42.8333,120.833 43.5,122.5C 43.0623,123.506 42.3957,123.506 41.5,122.5C 40.7025,122.957 40.3691,123.624 40.5,124.5C 35.9314,113.009 31.5981,101.343 27.5,89.5C 28.7311,88.2823 29.8978,86.949 31,85.5C 31.6667,86.1667 32.3333,86.8333 33,87.5C 33.1981,85.6183 33.6981,83.9516 34.5,82.5 Z"/></g>
<g><path style="opacity:1" fill="#c0accd" d="M 48.5,99.5 C 54.5092,99.3338 60.5092,99.5005 66.5,100C 65.9558,100.717 65.2891,101.217 64.5,101.5C 57.1667,100.167 49.8333,100.167 42.5,101.5C 41.9569,101.44 41.6236,101.107 41.5,100.5C 43.7427,99.5258 46.076,99.1924 48.5,99.5 Z"/></g>
<g><path style="opacity:1" fill="#af9cc0" d="M 117.5,99.5 C 125.528,99.169 133.528,99.5023 141.5,100.5C 141.376,101.107 141.043,101.44 140.5,101.5C 132.833,100.167 125.167,100.167 117.5,101.5C 116.167,100.833 116.167,100.167 117.5,99.5 Z"/></g>
<g><path style="opacity:1" fill="#e0e1e3" d="M 117.5,101.5 C 125.167,100.167 132.833,100.167 140.5,101.5C 138.82,107.044 136.653,112.377 134,117.5C 132.961,116.29 131.794,115.29 130.5,114.5C 126.5,109.833 122.167,105.5 117.5,101.5 Z"/></g>
<g><path style="opacity:1" fill="#dcdfe2" d="M 98.5,99.5 C 100.199,99.3398 101.866,99.5065 103.5,100C 110.035,106.703 116.702,113.203 123.5,119.5C 123.5,119.833 123.5,120.167 123.5,120.5C 102.164,120.667 80.8307,120.5 59.5,120C 66.1667,113.333 72.8333,106.667 79.5,100C 85.8246,99.5005 92.1579,99.3338 98.5,99.5 Z"/></g>
<g><path style="opacity:1" fill="#5f2580" d="M 94.5,90.5 C 107.833,90.5 121.167,90.5 134.5,90.5C 135.598,91.397 135.598,92.2303 134.5,93C 126.21,94.1207 117.876,94.7874 109.5,95C 110.833,96.3333 110.833,97.6667 109.5,99C 110,99.5 110.5,100 111,100.5C 112.288,96.147 114.788,95.3137 118.5,98C 117.944,98.3826 117.611,98.8826 117.5,99.5C 116.167,100.167 116.167,100.833 117.5,101.5C 122.167,105.5 126.5,109.833 130.5,114.5C 128.715,116.954 126.382,118.621 123.5,119.5C 116.702,113.203 110.035,106.703 103.5,100C 101.866,99.5065 100.199,99.3398 98.5,99.5C 99.5676,98.5655 100.901,98.2322 102.5,98.5C 102.509,96.6916 102.009,95.0249 101,93.5C 100.667,93.8333 100.333,94.1667 100,94.5C 97.8687,93.3852 96.0354,92.0519 94.5,90.5 Z"/></g>
<g><path style="opacity:1" fill="#dfdfe4" d="M 64.5,101.5 C 59.521,107.146 54.1877,112.479 48.5,117.5C 47.8243,116.398 47.1577,115.398 46.5,114.5C 45.1708,110.178 43.8375,105.845 42.5,101.5C 49.8333,100.167 57.1667,100.167 64.5,101.5 Z"/></g>
<g><path style="opacity:1" fill="#612685" d="M 123.5,121.5 C 122.391,122.29 121.058,122.79 119.5,123C 119.501,124.399 119.835,125.899 120.5,127.5C 119.398,128.176 118.398,128.842 117.5,129.5C 105.833,129.5 94.1667,129.5 82.5,129.5C 81.8554,126.453 82.8554,124.287 85.5,123C 83.8333,122.667 82.1667,122.333 80.5,122C 94.8295,121.5 109.163,121.333 123.5,121.5 Z"/></g>
</svg>
